:SAMPLES-PER-SECOND 30
:FULLY-SPECIFIED
:DEGREES
1344
root  40.1051 37.5499 27.6767 177.721 -75.9115 178.948
RightUpLeg  -23.715 -11.3247 9.83148
RightLeg  13.2507 -13.412 1.49526
RightFoot  0.826412 0.968026 -9.05189
RightToes  0.000482159 0.542163 -0.142577
Spine  12.6839 -6.80888 -4.07064
Spine1  8.85899 -11.4085 12.8877
HEad  -16.0575 14.1309 -12.0492
LeftShoulder1  9.79798 -15.7939 -44.2069
LeftArm  -3.49465 -1.71952 -26.4071
LeftForeArm  69.7954 -79.3027 -74.0729
LeftHand  -0.25398 0.0180481 5.50724
RightShoulder  3.89374 7.06139 30.9024
RightArm  -12.9012 -38.8799 15.8496
RightForeArm  74.1559 72.8917 134.619
RightHand  0.125824 -10.2728 -4.54687
LeftUpLeg  22.7187 19.0171 -2.16654
LeftLeg  15.955 -0.810147 -2.61933
LeftFoot  -18.2168 0.0857691 -0.466114
LeftToes  1.06246e-005 4.65854e-005 -8.18503e-006
1345
root  38.3258 37.5708 27.7012 173.115 -74.9942 -175.546
RightUpLeg  -26.0793 -14.7634 14.0978
RightLeg  19.2295 -7.32345 -2.30088
RightFoot  1.14098 1.52366 -13.8235
RightToes  0.000482159 0.542163 -0.142577
Spine  12.3113 -6.54346 -0.705006
Spine1  8.13089 -10.4761 12.3327
HEad  -17.2214 13.8381 -11.919
LeftShoulder1  9.93868 -15.8844 -44.6529
LeftArm  -2.94525 -0.89656 -26.677
LeftForeArm  68.5097 -79.231 -72.6801
LeftHand  -0.25398 0.0180481 5.50724
RightShoulder  3.96607 7.27054 30.858
RightArm  -12.6211 -39.2855 14.588
RightForeArm  73.4425 73.0673 133.977
RightHand  0.113629 -10.5653 -4.0816
LeftUpLeg  22.1615 26.1595 3.33989
LeftLeg  22.6574 -9.33106 -3.60063
LeftFoot  -12.4334 0.0414267 -4.82929
LeftToes  1.06246e-005 4.65854e-005 -8.18503e-006
1346
root  36.7304 37.5944 27.6752 170.412 -73.859 -172.162
RightUpLeg  -26.4498 -13.3544 14.5913
RightLeg  23.6958 -7.60922 -3.97192
RightFoot  -0.85073 1.31094 -14.2201
RightToes  0.000482159 0.542163 -0.142577
Spine  12.3657 -6.21571 1.66006
Spine1  7.84636 -9.58804 12.0528
HEad  -18.2564 13.909 -11.3024
LeftShoulder1  10.0511 -16.0072 -44.8833
LeftArm  -2.84185 -0.31557 -26.4856
LeftForeArm  66.4056 -79.1049 -70.7937
LeftHand  -0.25398 0.0180481 5.50724
RightShoulder  4.09481 7.61297 30.883
RightArm  -12.4923 -38.8167 14.2565
RightForeArm  71.2976 73.5559 132.084
RightHand  0.124263 -11.057 -4.00936
LeftUpLeg  16.7422 25.6321 4.6038
LeftLeg  33.6676 -7.78608 -5.10952
LeftFoot  -1.51194 0.794882 -9.00641
LeftToes  1.06246e-005 4.65854e-005 -8.18503e-006
1347
root  35.39 37.5382 27.5792 165.261 -73.7342 -167.047
RightUpLeg  -25.557 -14.0717 15.1822
RightLeg  27.0547 -7.61604 -4.43856
RightFoot  -4.07878 0.852476 -13.8046
RightToes  0.000482159 0.542163 -0.142577
Spine  13.4812 -6.39431 3.8509
Spine1  7.89699 -9.29624 12.2918
HEad  -18.5687 13.8542 -10.3935
LeftShoulder1  10.1068 -16.1262 -44.8571
LeftArm  -3.07596 -0.0382776 -25.9254
LeftForeArm  63.9968 -78.9472 -68.8211
LeftHand  -0.25398 0.0180481 5.50724
RightShoulder  4.17334 7.78578 31.0167
RightArm  -11.9184 -37.766 14.4463
RightForeArm  68.5657 74.0982 129.747
RightHand  0.144133 -11.5534 -4.11624
LeftUpLeg  8.90043 22.7617 5.46089
LeftLeg  47.035 -4.64841 -4.89265
LeftFoot  13.0279 2.63396 -12.4569
LeftToes  1.06246e-005 4.65854e-005 -8.18503e-006
1348
root  34.1243 37.4903 27.4505 157.34 -73.7321 -160.194
RightUpLeg  -23.1456 -15.8309 16.0382
RightLeg  29.3649 -7.05813 -4.53456
RightFoot  -7.06313 0.461351 -13.5106
RightToes  0.000482159 0.542163 -0.142577
Spine  15.6665 -6.90462 6.61643
Spine1  7.87671 -9.00011 12.2594
HEad  -18.1571 13.364 -9.47715
LeftShoulder1  10.0613 -16.1337 -44.6274
LeftArm  -3.50858 0.153054 -25.3834
LeftForeArm  61.7891 -78.7855 -66.9416
LeftHand  -0.25398 0.0180481 5.50724
RightShoulder  4.2075 7.79619 31.2874
RightArm  -10.9312 -36.7416 14.8677
RightForeArm  65.9343 74.6006 127.334
RightHand  0.159663 -11.7872 -4.26735
LeftUpLeg  1.67782 18.4147 6.86216
LeftLeg  59.39 -3.14385 -5.34415
LeftFoot  25.5289 4.78469 -14.8695
LeftToes  1.06246e-005 4.65854e-005 -8.18503e-006
1349
root  32.7158 37.6647 27.2935 153.034 -72.8178 -157.57
RightUpLeg  -18.8505 -16.0921 15.5155
RightLeg  29.9862 -6.80723 -4.49181
RightFoot  -9.23284 0.163997 -12.167
RightToes  0.000482159 0.542163 -0.142577
Spine  17.6624 -7.02535 8.70454
Spine1  7.74054 -8.12692 11.3189
HEad  -17.3103 12.6693 -8.82254
LeftShoulder1  9.90811 -15.9723 -44.2978
LeftArm  -4.2201 0.641953 -25.0155
LeftForeArm  60.4419 -78.6718 -65.6056
LeftHand  -0.25398 0.0180481 5.50724
RightShoulder  4.26528 7.85688 31.5991
RightArm  -10.1506 -35.8722 15.7703
RightForeArm  63.3834 75.122 124.553
RightHand  0.179955 -11.7136 -4.66671
LeftUpLeg  -4.02301 15.0378 7.78578
LeftLeg  68.8712 -3.24597 -8.53248
LeftFoot  30.5536 5.06388 -13.6955
LeftToes  1.06246e-005 4.65854e-005 -8.18503e-006
1350
root  31.1497 38.0566 27.091 154.338 -71.4618 -160.311
RightUpLeg  -13.5943 -15.0202 13.6118
RightLeg  28.8205 -6.7359 -4.06272
RightFoot  -10.8472 -0.0291774 -10.3304
RightToes  0.000482159 0.542163 -0.142577
Spine  18.4043 -6.62482 9.41562
Spine1  7.76522 -7.00588 9.76739
HEad  -16.0432 12.1564 -8.6047
LeftShoulder1  9.72402 -15.7362 -43.9947
LeftArm  -5.22421 1.6995 -24.5621
LeftForeArm  60.3475 -78.6568 -65.3427
LeftHand  -0.25398 0.0180481 5.50724
RightShoulder  4.34314 7.99508 31.8268
RightArm  -9.7419 -34.9256 17.1649
RightForeArm  60.868 75.63 121.485
RightHand  0.21034 -11.587 -5.28742
LeftUpLeg  -9.07973 13.1179 7.64514
LeftLeg  74.7432 -2.69283 -9.99367
LeftFoot  27.9578 2.95043 -8.66733
LeftToes  1.06246e-005 4.65854e-005 -8.18503e-006
1351
root  29.5229 38.4692 26.8517 157.055 -70.1961 -164.048
RightUpLeg  -8.38252 -13.2029 11.2518
RightLeg  26.8647 -7.22524 -3.15108
RightFoot  -12.2326 -0.156064 -9.34534
RightToes  0.000482159 0.542163 -0.142577
Spine  18.2647 -6.15395 9.58985
Spine1  7.84979 -6.08734 8.22693
HEad  -14.3419 11.9335 -8.80018
LeftShoulder1  9.58891 -15.5456 -43.8087
LeftArm  -6.24959 3.257 -23.8043
LeftForeArm  61.1384 -78.7242 -66.0918
LeftHand  -0.25398 0.0180481 5.50724
RightShoulder  4.38613 8.07887 31.9253
RightArm  -9.22884 -33.9619 18.496
RightForeArm  58.9058 75.98 119.076
RightHand  0.241236 -11.6662 -5.77883
LeftUpLeg  -13.7095 11.6756 7.25548
LeftLeg  76.7339 -1.31607 -5.33069
LeftFoot  22.2363 0.624288 -2.53322
LeftToes  1.06246e-005 4.65854e-005 -8.18503e-006
